<svg version="1.1" id="Layer_1" xmlns="http://www.w3.org/2000/svg" xmlns:xlink="http://www.w3.org/1999/xlink" x="0px" y="0px"
	 width="100%" viewBox="0 0 1200 250" enable-background="new 0 0 1200 250" xml:space="preserve">
<path fill="#000000" opacity="1.000000" stroke="none"
	d="
M815.000000,251.000000
	C543.333313,251.000000 272.166656,251.000000 1.000000,251.000000
	C1.000000,167.666672 1.000000,84.333336 1.000000,1.000000
	C401.000000,1.000000 801.000000,1.000000 1201.000000,1.000000
	C1201.000000,84.333336 1201.000000,167.666672 1201.000000,251.000000
	C1072.500000,251.000000 944.000000,251.000000 815.000000,251.000000
M736.662109,205.999954
	C767.317688,205.999969 797.976868,206.273804 828.627136,205.868530
	C841.322693,205.700638 853.421143,202.402756 864.778809,196.125351
	C886.397583,184.176620 890.779175,163.728226 884.960022,142.397141
	C880.710754,126.820862 869.285339,118.099297 853.287781,113.261208
	C855.723877,112.270920 857.362610,111.720078 858.898010,110.960419
	C865.177795,107.853233 871.243774,104.447990 875.178345,98.312881
	C878.534424,93.079712 880.303833,87.464470 881.197693,81.197403
	C883.104004,67.831039 879.969849,56.099957 870.273315,47.015785
	C858.414551,35.905869 843.219971,31.545271 827.463013,31.193829
	C797.488647,30.525280 767.488831,30.996616 737.499573,31.010540
	C736.065674,31.011206 734.631897,31.165146 733.321899,31.240580
	C733.321899,43.015720 733.321899,54.414997 733.321899,66.000000
	C753.286865,66.000000 772.933716,65.795219 792.573059,66.090561
	C801.732422,66.228302 810.900208,67.116180 820.021484,68.071602
	C827.270508,68.830917 832.846069,74.474373 833.982605,81.368469
	C835.006836,87.581032 831.337646,95.052818 824.864929,97.414230
	C819.481506,99.378227 813.572083,100.751518 807.870667,100.843948
	C784.718323,101.219284 761.556458,101.000000 738.398071,101.000000
	C736.645996,101.000000 734.893921,101.000000 733.357910,101.000000
	C733.357910,112.422279 733.357910,123.156586 733.357910,134.000000
	C759.033875,134.000000 784.353027,133.880798 809.669434,134.091690
	C815.332581,134.138840 821.035767,135.070831 826.629639,136.092834
	C832.073181,137.087372 838.369751,143.926498 838.994202,148.776505
	C840.016846,156.719589 837.610291,162.956757 830.863953,165.839539
	C825.030396,168.332367 818.590149,170.631897 812.367493,170.772003
	C787.722168,171.326874 763.056946,171.000000 738.399109,171.000000
	C736.646912,171.000000 734.894714,171.000000 733.000610,171.000000
	C733.000610,182.170166 732.930115,192.657425 733.117859,203.140045
	C733.135132,204.108200 734.796204,205.046921 736.662109,205.999954
M605.496704,206.000000
	C610.596252,206.000000 615.695801,206.000000 621.000000,206.000000
	C621.000000,194.614349 620.939514,183.802185 621.064087,172.992157
	C621.083130,171.338470 621.496765,169.295410 622.518188,168.117905
	C626.215027,163.856064 630.248779,159.886475 634.241150,155.717041
	C643.364258,172.130859 652.145874,188.000809 661.056274,203.798157
	C661.631592,204.818268 663.194519,205.898056 664.306152,205.906723
	C681.374939,206.039825 698.445129,205.999481 716.019714,205.999481
	C713.796692,202.182114 711.934814,198.843155 709.941467,195.584641
	C696.172546,173.077332 682.411011,150.565292 668.551392,128.113861
	C666.461365,124.728127 666.050354,122.252388 669.293274,119.036133
	C680.368958,108.051399 691.151733,96.768745 701.940735,85.498741
	C706.309875,80.934761 710.407227,76.110588 714.991211,71.000198
	C698.166992,71.000198 681.877869,70.936394 665.591125,71.105247
	C664.070129,71.121017 662.246399,72.295921 661.101929,73.461517
	C652.040405,82.690094 643.071655,92.010880 634.155212,101.380280
	C629.932373,105.817696 625.886597,110.423538 620.827026,115.977928
	C620.827026,83.034370 620.827026,51.635662 620.827026,20.280308
	C605.707092,20.280308 590.967957,20.280308 576.284058,20.280308
	C576.284058,82.299210 576.284058,144.037384 576.284058,206.000000
	C585.876953,206.000000 595.187561,206.000000 605.496704,206.000000
M273.000092,169.224533
	C273.332672,170.801224 273.720642,172.368546 273.989197,173.956055
	C276.569275,189.207642 284.853943,199.823837 299.577240,204.964722
	C310.794250,208.881363 322.471069,209.212326 333.882935,206.753708
	C340.620544,205.302139 346.991547,201.855850 353.292511,198.819107
	C355.724030,197.647263 357.505310,195.126297 360.323273,192.540573
	C360.323273,197.748520 360.323273,201.826736 360.323273,205.661789
	C375.425171,205.661789 390.158356,205.661789 404.000153,205.661789
	C404.000153,174.599640 404.170868,143.877365 403.903412,113.158875
	C403.815094,103.018768 399.891541,94.040527 392.962433,86.443184
	C381.676819,74.069191 366.777588,70.036140 350.997009,69.210022
	C341.732117,68.724998 332.334351,70.102837 323.038147,71.052055
	C309.309692,72.453842 296.508789,77.258858 283.965302,82.709145
	C283.013519,83.122719 282.172668,85.582359 282.487640,86.770988
	C283.299042,89.833069 284.793518,92.713417 286.005859,95.670143
	C288.664062,102.153023 291.316528,108.638245 293.415192,113.764137
	C304.812927,110.704910 315.412811,107.724678 326.086365,105.037048
	C334.880646,102.822624 343.482635,103.435730 351.561401,107.947594
	C357.731232,111.393333 359.687225,117.030190 360.052765,124.000000
	C355.654724,124.000000 351.673248,123.851616 347.706116,124.027016
	C334.221405,124.623222 320.630981,124.493767 307.293304,126.252243
	C295.493256,127.807991 285.252411,133.511932 278.428619,144.023041
	C273.597839,151.464142 272.802368,159.752792 273.000092,169.224533
M985.573486,194.947708
	C986.246643,194.397171 986.919800,193.846619 988.280762,192.733582
	C988.280762,197.721222 988.280762,201.792374 988.280762,205.640488
	C1003.424438,205.640488 1018.157898,205.640488 1032.000244,205.640488
	C1032.000244,174.536667 1032.551147,143.781799 1031.786865,113.059631
	C1031.351318,95.544777 1021.655518,82.781761 1005.814087,75.467712
	C989.216980,67.804733 971.472107,67.780518 953.820862,70.201027
	C939.732483,72.132957 926.164917,76.426773 913.033813,81.992752
	C910.311401,83.146751 909.046570,84.325356 910.715759,87.433777
	C912.147583,90.100060 912.883301,93.131966 914.040466,95.955605
	C916.654236,102.333687 919.338257,108.682976 921.636353,114.187920
	C931.075378,111.210426 939.785828,107.573639 948.859192,105.872787
	C956.567505,104.427849 964.827820,104.220573 972.603149,105.262512
	C982.861328,106.637177 989.000732,115.345757 987.329834,124.000000
	C979.718628,124.000000 972.056091,123.746124 964.417297,124.063881
	C954.740479,124.466415 944.968811,124.630867 935.446289,126.178703
	C923.590576,128.105774 913.121277,133.357010 906.486084,144.052719
	C900.813354,153.197113 899.985718,163.133545 901.922424,173.638779
	C904.807129,189.286148 912.919983,200.089996 928.417480,205.128357
	C939.651428,208.780655 951.017029,208.914780 962.337158,206.714600
	C970.764343,205.076691 978.816956,201.929886 985.573486,194.947708
M72.576752,206.000000
	C85.999573,206.000000 99.422394,206.000000 113.230850,206.000000
	C113.230850,159.969223 113.230850,114.566437 113.230850,68.768204
	C130.698166,68.768204 147.772568,68.768204 164.681763,68.768204
	C164.681763,55.961067 164.681763,43.555008 164.681763,31.316343
	C114.294952,31.316343 64.226891,31.316343 14.319181,31.316343
	C14.319181,44.040840 14.319181,56.446934 14.319181,69.243851
	C31.710421,69.243851 48.784824,69.243851 66.245308,69.243851
	C66.245308,115.044174 66.245308,160.446350 66.245308,206.000000
	C68.293625,206.000000 69.946686,206.000000 72.576752,206.000000
M502.096466,207.970596
	C507.899048,206.648148 513.772949,205.576843 519.490295,203.954208
	C534.188904,199.782578 545.177429,190.738770 553.050354,177.735580
	C554.454529,175.416534 554.282959,174.174377 551.614563,172.829132
	C547.020630,170.513046 542.743774,167.577393 538.253052,165.044922
	C532.549316,161.828369 526.765015,158.754547 520.926758,155.570786
	C516.119446,163.680984 509.689545,168.150528 500.633514,170.306732
	C489.456573,172.967865 476.525787,166.705460 472.036469,156.922241
	C467.639282,147.339706 467.040710,137.512161 469.813995,127.145164
	C472.151337,118.407906 477.002411,112.236176 485.149628,109.057556
	C497.056091,104.412254 507.771606,106.718750 516.643188,116.184021
	C518.204468,117.849808 519.502808,119.762024 520.756409,121.349953
	C532.573608,114.429314 543.380005,108.100632 554.185913,101.772232
	C547.845154,91.111771 538.025879,81.369247 529.188904,77.028534
	C511.224274,68.204330 492.301208,66.754440 473.095490,71.134377
	C449.972137,76.407745 433.691711,90.223206 426.137604,112.988579
	C421.623291,126.593010 421.987396,140.781097 424.027863,154.847031
	C427.502502,178.799103 441.677063,194.162094 463.569977,202.957092
	C475.619537,207.797745 488.338654,208.478134 502.096466,207.970596
M230.988968,123.513008
	C235.214813,117.054810 241.615204,113.603256 248.791061,112.155594
	C254.968964,110.909264 261.416382,110.998970 267.753571,110.497246
	C267.753571,96.725388 267.753571,82.987404 267.753571,68.947670
	C249.725037,69.003799 235.779495,76.445450 224.743790,91.603691
	C224.743790,84.002113 224.743790,77.588402 224.743790,71.288742
	C209.667496,71.288742 194.939224,71.288742 180.241791,71.288742
	C180.241791,116.282288 180.241791,160.986649 180.241791,205.770798
	C195.211868,205.770798 209.939148,205.770798 225.000000,205.770798
	C225.000000,183.937820 224.634018,162.321869 225.249420,140.733902
	C225.409393,135.121445 228.634277,129.596359 230.988968,123.513008
M1128.503296,112.925903
	C1135.560059,111.981308 1142.616821,111.036713 1149.722900,110.085510
	C1149.722900,96.699402 1149.722900,82.961708 1149.722900,68.980400
	C1131.727539,68.988457 1117.854980,76.416878 1106.839844,91.501350
	C1106.839844,84.007568 1106.839844,77.624283 1106.839844,71.299156
	C1091.688599,71.299156 1076.961426,71.299156 1062.284180,71.299156
	C1062.284180,116.310112 1062.284180,161.021317 1062.284180,205.707581
	C1077.297241,205.707581 1092.024292,205.707581 1107.000000,205.707581
	C1107.000000,184.621704 1107.353394,163.819046 1106.872192,143.035721
	C1106.566040,129.816650 1114.258911,117.265862 1128.503296,112.925903
z"/>
<path fill="#D7DAC7" opacity="1.000000" stroke="none"
	d="
M736.178040,205.999634
	C734.796204,205.046921 733.135132,204.108200 733.117859,203.140045
	C732.930115,192.657425 733.000610,182.170166 733.000610,171.000000
	C734.894714,171.000000 736.646912,171.000000 738.399109,171.000000
	C763.056946,171.000000 787.722168,171.326874 812.367493,170.772003
	C818.590149,170.631897 825.030396,168.332367 830.863953,165.839539
	C837.610291,162.956757 840.016846,156.719589 838.994202,148.776505
	C838.369751,143.926498 832.073181,137.087372 826.629639,136.092834
	C821.035767,135.070831 815.332581,134.138840 809.669434,134.091690
	C784.353027,133.880798 759.033875,134.000000 733.357910,134.000000
	C733.357910,123.156586 733.357910,112.422279 733.357910,101.000000
	C734.893921,101.000000 736.645996,101.000000 738.398071,101.000000
	C761.556458,101.000000 784.718323,101.219284 807.870667,100.843948
	C813.572083,100.751518 819.481506,99.378227 824.864929,97.414230
	C831.337646,95.052818 835.006836,87.581032 833.982605,81.368469
	C832.846069,74.474373 827.270508,68.830917 820.021484,68.071602
	C810.900208,67.116180 801.732422,66.228302 792.573059,66.090561
	C772.933716,65.795219 753.286865,66.000000 733.321899,66.000000
	C733.321899,54.414997 733.321899,43.015720 733.321899,31.240580
	C734.631897,31.165146 736.065674,31.011206 737.499573,31.010540
	C767.488831,30.996616 797.488647,30.525280 827.463013,31.193829
	C843.219971,31.545271 858.414551,35.905869 870.273315,47.015785
	C879.969849,56.099957 883.104004,67.831039 881.197693,81.197403
	C880.303833,87.464470 878.534424,93.079712 875.178345,98.312881
	C871.243774,104.447990 865.177795,107.853233 858.898010,110.960419
	C857.362610,111.720078 855.723877,112.270920 853.287781,113.261208
	C869.285339,118.099297 880.710754,126.820862 884.960022,142.397141
	C890.779175,163.728226 886.397583,184.176620 864.778809,196.125351
	C853.421143,202.402756 841.322693,205.700638 828.627136,205.868530
	C797.976868,206.273804 767.317688,205.999969 736.178040,205.999634
z"/>
<path fill="#FFFFFF" opacity="1.000000" stroke="none"
	d="
M604.997437,206.000000
	C595.187561,206.000000 585.876953,206.000000 576.284058,206.000000
	C576.284058,144.037384 576.284058,82.299210 576.284058,20.280308
	C590.967957,20.280308 605.707092,20.280308 620.827026,20.280308
	C620.827026,51.635662 620.827026,83.034370 620.827026,115.977928
	C625.886597,110.423538 629.932373,105.817696 634.155212,101.380280
	C643.071655,92.010880 652.040405,82.690094 661.101929,73.461517
	C662.246399,72.295921 664.070129,71.121017 665.591125,71.105247
	C681.877869,70.936394 698.166992,71.000198 714.991211,71.000198
	C710.407227,76.110588 706.309875,80.934761 701.940735,85.498741
	C691.151733,96.768745 680.368958,108.051399 669.293274,119.036133
	C666.050354,122.252388 666.461365,124.728127 668.551392,128.113861
	C682.411011,150.565292 696.172546,173.077332 709.941467,195.584641
	C711.934814,198.843155 713.796692,202.182114 716.019714,205.999481
	C698.445129,205.999481 681.374939,206.039825 664.306152,205.906723
	C663.194519,205.898056 661.631592,204.818268 661.056274,203.798157
	C652.145874,188.000809 643.364258,172.130859 634.241150,155.717041
	C630.248779,159.886475 626.215027,163.856064 622.518188,168.117905
	C621.496765,169.295410 621.083130,171.338470 621.064087,172.992157
	C620.939514,183.802185 621.000000,194.614349 621.000000,206.000000
	C615.695801,206.000000 610.596252,206.000000 604.997437,206.000000
z"/>
<path fill="#FFFFFF" opacity="1.000000" stroke="none"
	d="
M273.000061,168.757339
	C272.802368,159.752792 273.597839,151.464142 278.428619,144.023041
	C285.252411,133.511932 295.493256,127.807991 307.293304,126.252243
	C320.630981,124.493767 334.221405,124.623222 347.706116,124.027016
	C351.673248,123.851616 355.654724,124.000000 360.052765,124.000000
	C359.687225,117.030190 357.731232,111.393333 351.561401,107.947594
	C343.482635,103.435730 334.880646,102.822624 326.086365,105.037048
	C315.412811,107.724678 304.812927,110.704910 293.415192,113.764137
	C291.316528,108.638245 288.664062,102.153023 286.005859,95.670143
	C284.793518,92.713417 283.299042,89.833069 282.487640,86.770988
	C282.172668,85.582359 283.013519,83.122719 283.965302,82.709145
	C296.508789,77.258858 309.309692,72.453842 323.038147,71.052055
	C332.334351,70.102837 341.732117,68.724998 350.997009,69.210022
	C366.777588,70.036140 381.676819,74.069191 392.962433,86.443184
	C399.891541,94.040527 403.815094,103.018768 403.903412,113.158875
	C404.170868,143.877365 404.000153,174.599640 404.000153,205.661789
	C390.158356,205.661789 375.425171,205.661789 360.323273,205.661789
	C360.323273,201.826736 360.323273,197.748520 360.323273,192.540573
	C357.505310,195.126297 355.724030,197.647263 353.292511,198.819107
	C346.991547,201.855850 340.620544,205.302139 333.882935,206.753708
	C322.471069,209.212326 310.794250,208.881363 299.577240,204.964722
	C284.853943,199.823837 276.569275,189.207642 273.989197,173.956055
	C273.720642,172.368546 273.332672,170.801224 273.000061,168.757339
M344.527740,148.000000
	C338.965271,148.334000 333.391937,148.545609 327.843414,149.037094
	C322.507477,149.509720 316.722137,154.245041 316.007751,158.408447
	C314.747955,165.750412 317.484741,172.219070 323.617828,174.777878
	C328.701141,176.898712 333.958984,176.966644 339.665771,176.239120
	C352.439880,174.610611 363.299713,163.565948 359.356354,148.000000
	C354.779175,148.000000 350.148560,148.000000 344.527740,148.000000
z"/>
<path fill="#D7DAC7" opacity="1.000000" stroke="none"
	d="
M985.300903,195.203674
	C978.816956,201.929886 970.764343,205.076691 962.337158,206.714600
	C951.017029,208.914780 939.651428,208.780655 928.417480,205.128357
	C912.919983,200.089996 904.807129,189.286148 901.922424,173.638779
	C899.985718,163.133545 900.813354,153.197113 906.486084,144.052719
	C913.121277,133.357010 923.590576,128.105774 935.446289,126.178703
	C944.968811,124.630867 954.740479,124.466415 964.417297,124.063881
	C972.056091,123.746124 979.718628,124.000000 987.329834,124.000000
	C989.000732,115.345757 982.861328,106.637177 972.603149,105.262512
	C964.827820,104.220573 956.567505,104.427849 948.859192,105.872787
	C939.785828,107.573639 931.075378,111.210426 921.636353,114.187920
	C919.338257,108.682976 916.654236,102.333687 914.040466,95.955605
	C912.883301,93.131966 912.147583,90.100060 910.715759,87.433777
	C909.046570,84.325356 910.311401,83.146751 913.033813,81.992752
	C926.164917,76.426773 939.732483,72.132957 953.820862,70.201027
	C971.472107,67.780518 989.216980,67.804733 1005.814087,75.467712
	C1021.655518,82.781761 1031.351318,95.544777 1031.786865,113.059631
	C1032.551147,143.781799 1032.000244,174.536667 1032.000244,205.640488
	C1018.157898,205.640488 1003.424438,205.640488 988.280762,205.640488
	C988.280762,201.792374 988.280762,197.721222 988.280762,192.733582
	C986.919800,193.846619 986.246643,194.397171 985.300903,195.203674
M965.117065,176.958618
	C965.865967,176.645096 966.602661,176.092789 967.365662,176.053665
	C980.001221,175.405823 991.364197,163.909195 987.244812,147.568420
	C977.681885,148.040710 967.976807,148.615067 958.263672,148.968857
	C950.843628,149.239151 944.564941,153.543884 944.001404,159.068207
	C943.033752,168.553711 946.766479,174.140533 955.521606,175.965118
	C958.368896,176.558502 961.317444,176.666122 965.117065,176.958618
z"/>
<path fill="#FFFFFF" opacity="1.000000" stroke="none"
	d="
M72.088249,206.000000
	C69.946686,206.000000 68.293625,206.000000 66.245308,206.000000
	C66.245308,160.446350 66.245308,115.044174 66.245308,69.243851
	C48.784824,69.243851 31.710421,69.243851 14.319181,69.243851
	C14.319181,56.446934 14.319181,44.040840 14.319181,31.316343
	C64.226891,31.316343 114.294952,31.316343 164.681763,31.316343
	C164.681763,43.555008 164.681763,55.961067 164.681763,68.768204
	C147.772568,68.768204 130.698166,68.768204 113.230850,68.768204
	C113.230850,114.566437 113.230850,159.969223 113.230850,206.000000
	C99.422394,206.000000 85.999573,206.000000 72.088249,206.000000
z"/>
<path fill="#FFFFFF" opacity="1.000000" stroke="none"
	d="
M501.627960,207.984314
	C488.338654,208.478134 475.619537,207.797745 463.569977,202.957092
	C441.677063,194.162094 427.502502,178.799103 424.027863,154.847031
	C421.987396,140.781097 421.623291,126.593010 426.137604,112.988579
	C433.691711,90.223206 449.972137,76.407745 473.095490,71.134377
	C492.301208,66.754440 511.224274,68.204330 529.188904,77.028534
	C538.025879,81.369247 547.845154,91.111771 554.185913,101.772232
	C543.380005,108.100632 532.573608,114.429314 520.756409,121.349953
	C519.502808,119.762024 518.204468,117.849808 516.643188,116.184021
	C507.771606,106.718750 497.056091,104.412254 485.149628,109.057556
	C477.002411,112.236176 472.151337,118.407906 469.813995,127.145164
	C467.040710,137.512161 467.639282,147.339706 472.036469,156.922241
	C476.525787,166.705460 489.456573,172.967865 500.633514,170.306732
	C509.689545,168.150528 516.119446,163.680984 520.926758,155.570786
	C526.765015,158.754547 532.549316,161.828369 538.253052,165.044922
	C542.743774,167.577393 547.020630,170.513046 551.614563,172.829132
	C554.282959,174.174377 554.454529,175.416534 553.050354,177.735580
	C545.177429,190.738770 534.188904,199.782578 519.490295,203.954208
	C513.772949,205.576843 507.899048,206.648148 501.627960,207.984314
z"/>
<path fill="#FFFFFF" opacity="1.000000" stroke="none"
	d="
M230.720200,123.772079
	C228.634277,129.596359 225.409393,135.121445 225.249420,140.733902
	C224.634018,162.321869 225.000000,183.937820 225.000000,205.770798
	C209.939148,205.770798 195.211868,205.770798 180.241791,205.770798
	C180.241791,160.986649 180.241791,116.282288 180.241791,71.288742
	C194.939224,71.288742 209.667496,71.288742 224.743790,71.288742
	C224.743790,77.588402 224.743790,84.002113 224.743790,91.603691
	C235.779495,76.445450 249.725037,69.003799 267.753571,68.947670
	C267.753571,82.987404 267.753571,96.725388 267.753571,110.497246
	C261.416382,110.998970 254.968964,110.909264 248.791061,112.155594
	C241.615204,113.603256 235.214813,117.054810 230.720200,123.772079
z"/>
<path fill="#D7DAC7" opacity="1.000000" stroke="none"
	d="
M1128.092529,112.960449
	C1114.258911,117.265862 1106.566040,129.816650 1106.872192,143.035721
	C1107.353394,163.819046 1107.000000,184.621704 1107.000000,205.707581
	C1092.024292,205.707581 1077.297241,205.707581 1062.284180,205.707581
	C1062.284180,161.021317 1062.284180,116.310112 1062.284180,71.299156
	C1076.961426,71.299156 1091.688599,71.299156 1106.839844,71.299156
	C1106.839844,77.624283 1106.839844,84.007568 1106.839844,91.501350
	C1117.854980,76.416878 1131.727539,68.988457 1149.722900,68.980400
	C1149.722900,82.961708 1149.722900,96.699402 1149.722900,110.085510
	C1142.616821,111.036713 1135.560059,111.981308 1128.092529,112.960449
z"/>
<path fill="#000000" opacity="1.000000" stroke="none"
	d="
M345.022827,148.000000
	C350.148560,148.000000 354.779175,148.000000 359.356354,148.000000
	C363.299713,163.565948 352.439880,174.610611 339.665771,176.239120
	C333.958984,176.966644 328.701141,176.898712 323.617828,174.777878
	C317.484741,172.219070 314.747955,165.750412 316.007751,158.408447
	C316.722137,154.245041 322.507477,149.509720 327.843414,149.037094
	C333.391937,148.545609 338.965271,148.334000 345.022827,148.000000
z"/>
<path fill="#000000" opacity="1.000000" stroke="none"
	d="
M964.668335,176.977264
	C961.317444,176.666122 958.368896,176.558502 955.521606,175.965118
	C946.766479,174.140533 943.033752,168.553711 944.001404,159.068207
	C944.564941,153.543884 950.843628,149.239151 958.263672,148.968857
	C967.976807,148.615067 977.681885,148.040710 987.244812,147.568420
	C991.364197,163.909195 980.001221,175.405823 967.365662,176.053665
	C966.602661,176.092789 965.865967,176.645096 964.668335,176.977264
z"/>
</svg>